<svg width="140" height="47" viewBox="0 0 140 47" fill="none" xmlns="http://www.w3.org/2000/svg">
<path d="M128.851 0.000152092H11.155C10.726 0.000152092 10.3021 0.000152092 9.87425 0.00249198C9.51607 0.00483186 9.16075 0.0116292 8.79913 0.0173502C8.01353 0.0265949 7.22978 0.0957086 6.45469 0.224091C5.68068 0.355268 4.93092 0.602574 4.23077 0.957644C3.53147 1.31572 2.8925 1.781 2.33704 2.33661C1.77867 2.89065 1.31322 3.53106 0.958592 4.23319C0.602988 4.93392 0.356412 5.68483 0.227378 6.45996C0.097118 7.23412 0.0270238 8.0172 0.0177246 8.80219C0.00686756 9.16089 0.00572102 9.52079 0 9.87954V36.9219C0.00572102 37.2851 0.00686756 37.6371 0.0177246 38.0004C0.0270266 38.7854 0.0971208 39.5684 0.227378 40.3426C0.356055 41.1181 0.602647 41.8695 0.958592 42.5705C1.31306 43.2703 1.77857 43.9081 2.33704 44.4591C2.89039 45.0172 3.52978 45.4828 4.23077 45.8381C4.93092 46.1941 5.68059 46.4429 6.45469 46.5761C7.22991 46.7035 8.01358 46.7726 8.79913 46.783C9.16075 46.7909 9.51607 46.7955 9.87425 46.7955C10.3021 46.7978 10.726 46.7978 11.155 46.7978H128.851C129.272 46.7978 129.699 46.7978 130.119 46.7955C130.476 46.7955 130.842 46.7909 131.198 46.783C131.982 46.7732 132.764 46.704 133.538 46.5761C134.315 46.442 135.067 46.1933 135.77 45.8381C136.471 45.4826 137.11 45.017 137.662 44.4591C138.219 43.906 138.686 43.2686 139.045 42.5705C139.398 41.869 139.642 41.1177 139.769 40.3426C139.9 39.5683 139.972 38.7855 139.986 38.0004C139.991 37.6371 139.991 37.2851 139.991 36.9219C140 36.4968 140 36.0741 140 35.6422V11.1569C140 10.7284 140 10.3034 139.991 9.87954C139.991 9.52079 139.991 9.16089 139.986 8.80214C139.972 8.01709 139.9 7.23418 139.769 6.45992C139.642 5.68523 139.398 4.93439 139.045 4.23314C138.323 2.82579 137.178 1.68022 135.77 0.957539C135.067 0.603336 134.314 0.356096 133.538 0.223985C132.764 0.0950376 131.982 0.0258999 131.198 0.0171864C130.842 0.0114771 130.476 0.00462127 130.119 0.00233988C129.699 0 129.272 0 128.851 0V0.000152092Z" fill="black"/>
<path d="M9.88007 45.7741C9.52361 45.7741 9.17577 45.7695 8.82211 45.7616C8.08947 45.752 7.35854 45.6882 6.63532 45.5707C5.96096 45.4546 5.30768 45.2385 4.69703 44.9297C4.09199 44.6235 3.54014 44.2219 3.06262 43.7404C2.5782 43.2645 2.17489 42.7126 1.86869 42.1065C1.55911 41.4965 1.34486 40.8427 1.23341 40.1677C1.11305 39.4425 1.04793 38.7092 1.03861 37.9741C1.03119 37.7273 1.02148 36.9058 1.02148 36.9058V9.87949C1.02148 9.87949 1.03183 9.07058 1.03867 8.83293C1.04759 8.099 1.11233 7.36682 1.23233 6.64272C1.34399 5.96593 1.5584 5.31018 1.86815 4.69816C2.17323 4.09249 2.5743 3.54018 3.0558 3.06264C3.53677 2.58055 4.09038 2.1769 4.69646 1.86641C5.3057 1.55858 5.95774 1.34405 6.63075 1.23003C7.35634 1.11136 8.08981 1.0472 8.82498 1.03809L9.88065 1.0238H130.114L131.182 1.03866C131.911 1.04732 132.637 1.11091 133.356 1.22888C134.036 1.34434 134.695 1.56036 135.311 1.86984C136.525 2.49557 137.513 3.48555 138.137 4.70101C138.441 5.30881 138.653 5.95921 138.763 6.63015C138.884 7.3602 138.952 8.09813 138.966 8.83808C138.97 9.16941 138.97 9.5253 138.97 9.87949C138.979 10.3182 138.979 10.7358 138.979 11.1568V35.6421C138.979 36.0672 138.979 36.4819 138.97 36.9001C138.97 37.2805 138.969 37.6291 138.965 37.9878C138.951 38.7145 138.884 39.4393 138.765 40.1562C138.656 40.8361 138.443 41.495 138.133 42.11C137.825 42.7095 137.424 43.2567 136.945 43.7312C136.467 44.2153 135.914 44.6193 135.308 44.9275C134.693 45.2387 134.035 45.4555 133.356 45.5707C132.633 45.6889 131.902 45.7526 131.17 45.7616C130.827 45.7695 130.468 45.7741 130.12 45.7741L128.851 45.7764L9.88007 45.7741Z" fill="#E7FFF7"/>
<path d="M28.9783 23.7507C28.9908 22.7742 29.2502 21.8168 29.7323 20.9674C30.2143 20.1181 30.9034 19.4045 31.7353 18.8931C31.2068 18.1383 30.5096 17.5171 29.699 17.0789C28.8884 16.6407 27.9869 16.3975 27.0659 16.3687C25.1013 16.1625 23.1966 17.5443 22.1955 17.5443C21.175 17.5443 19.6336 16.3892 17.9738 16.4233C16.9002 16.458 15.8538 16.7702 14.9367 17.3295C14.0196 17.8888 13.2631 18.6761 12.7407 19.6148C10.4781 23.5322 12.1658 29.2896 14.3333 32.4561C15.4177 34.0067 16.685 35.7388 18.3434 35.6773C19.9662 35.61 20.5722 34.6426 22.5311 34.6426C24.4717 34.6426 25.0403 35.6773 26.7323 35.6383C28.4736 35.61 29.5708 34.0808 30.6171 32.5156C31.3963 31.4107 31.9958 30.1896 32.3936 28.8975C31.3819 28.4696 30.5186 27.7534 29.9113 26.8382C29.3039 25.9229 28.9794 24.8491 28.9783 23.7507Z" fill="#333333"/>
<path d="M25.7824 14.2862C26.7319 13.1464 27.1996 11.6814 27.0863 10.2023C25.6358 10.3547 24.2959 11.0479 23.3337 12.144C22.8632 12.6794 22.5028 13.3023 22.2732 13.9771C22.0436 14.6519 21.9493 15.3653 21.9956 16.0766C22.7211 16.0841 23.4389 15.9268 24.0948 15.6167C24.7508 15.3066 25.3278 14.8516 25.7824 14.2862Z" fill="#333333"/>
<path d="M49.4914 31.7519H43.9536L42.6237 35.6788H40.2781L45.5234 21.1505H47.9604L53.2057 35.6788H50.8201L49.4914 31.7519ZM44.5271 29.9399H48.9167L46.7528 23.5669H46.6922L44.5271 29.9399Z" fill="#333333"/>
<path d="M64.5338 30.3832C64.5338 33.6748 62.7721 35.7896 60.1134 35.7896C59.4399 35.8248 58.7701 35.6697 58.1807 35.342C57.5913 35.0142 57.1061 34.5271 56.7807 33.9364H56.7304V39.1829H54.5562V25.0865H56.6607V26.8482H56.7007C57.0411 26.2604 57.5345 25.7758 58.1284 25.4461C58.7223 25.1163 59.3945 24.9538 60.0734 24.9756C62.7617 24.9757 64.5338 27.1007 64.5338 30.3832ZM62.2991 30.3832C62.2991 28.2387 61.1908 26.8288 59.4999 26.8288C57.8386 26.8288 56.7213 28.2684 56.7213 30.3832C56.7213 32.5174 57.8386 33.9467 59.4999 33.9467C61.1908 33.9467 62.2991 32.5471 62.2991 30.3832Z" fill="#333333"/>
<path d="M76.192 30.3832C76.192 33.6748 74.4303 35.7896 71.7716 35.7896C71.0981 35.8248 70.4283 35.6697 69.8389 35.342C69.2495 35.0142 68.7643 34.5271 68.4389 33.9364H68.3886V39.1829H66.2144V25.0865H68.3189V26.8482H68.3589C68.6993 26.2604 69.1927 25.7758 69.7866 25.4461C70.3805 25.1163 71.0526 24.9537 71.7316 24.9756C74.42 24.9756 76.192 27.1007 76.192 30.3832ZM73.9573 30.3832C73.9573 28.2387 72.849 26.8288 71.1581 26.8288C69.4968 26.8288 68.3795 28.2684 68.3795 30.3832C68.3795 32.5174 69.4968 33.9467 71.1581 33.9467C72.849 33.9467 73.9573 32.5471 73.9573 30.3832H73.9573Z" fill="#333333"/>
<path d="M83.8973 31.6308C84.0584 33.0716 85.458 34.0175 87.3706 34.0175C89.2032 34.0175 90.5216 33.0715 90.5216 31.7724C90.5216 30.6448 89.7264 29.9696 87.8436 29.5068L85.9607 29.0532C83.2929 28.4089 82.0544 27.1612 82.0544 25.1367C82.0544 22.63 84.2389 20.9082 87.3409 20.9082C90.4108 20.9082 92.5153 22.63 92.5862 25.1367H90.3914C90.26 23.6868 89.0615 22.8117 87.31 22.8117C85.5585 22.8117 84.36 23.6971 84.36 24.9859C84.36 26.013 85.1255 26.6174 86.9981 27.0801L88.5987 27.4731C91.5796 28.178 92.8181 29.3754 92.8181 31.5005C92.8181 34.2185 90.653 35.9209 87.2094 35.9209C83.9875 35.9209 81.8122 34.2585 81.6716 31.6307L83.8973 31.6308Z" fill="#333333"/>
<path d="M97.5105 22.5798V25.0865H99.5248V26.8082H97.5105V32.6477C97.5105 33.5548 97.9138 33.9776 98.7993 33.9776C99.0384 33.9734 99.2771 33.9566 99.5145 33.9273V35.6388C99.1164 35.7131 98.7118 35.7468 98.3068 35.7393C96.1623 35.7393 95.326 34.9338 95.326 32.8796V26.8082H93.7859V25.0865H95.326V22.5798H97.5105Z" fill="#333333"/>
<path d="M100.691 30.3832C100.691 27.0505 102.654 24.9562 105.715 24.9562C108.786 24.9562 110.74 27.0504 110.74 30.3832C110.74 33.7251 108.796 35.8102 105.715 35.8102C102.635 35.8102 100.691 33.7251 100.691 30.3832ZM108.524 30.3832C108.524 28.097 107.477 26.7477 105.715 26.7477C103.953 26.7477 102.907 28.1073 102.907 30.3832C102.907 32.6785 103.953 34.0176 105.715 34.0176C107.477 34.0176 108.524 32.6785 108.524 30.3832H108.524Z" fill="#333333"/>
<path d="M112.532 25.0864H114.606V26.8893H114.656C114.797 26.3262 115.126 25.8286 115.59 25.4801C116.054 25.1316 116.624 24.9535 117.204 24.9756C117.455 24.9747 117.704 25.0019 117.949 25.0567V27.0904C117.633 26.9938 117.303 26.9494 116.972 26.959C116.656 26.9462 116.341 27.0019 116.049 27.1223C115.757 27.2426 115.494 27.4248 115.279 27.6564C115.063 27.8879 114.901 28.1632 114.802 28.4635C114.703 28.7638 114.671 29.0819 114.706 29.396V35.6787H112.532L112.532 25.0864Z" fill="#333333"/>
<path d="M127.973 32.5677C127.681 34.4906 125.808 35.8102 123.412 35.8102C120.331 35.8102 118.418 33.7456 118.418 30.4335C118.418 27.111 120.341 24.9562 123.321 24.9562C126.252 24.9562 128.094 26.9694 128.094 30.181V30.9259H120.613V31.0573C120.579 31.4471 120.628 31.8398 120.756 32.2093C120.885 32.5789 121.091 32.9167 121.361 33.2005C121.63 33.4843 121.957 33.7074 122.32 33.8552C122.682 34.003 123.072 34.0719 123.463 34.0576C123.976 34.1057 124.492 33.9867 124.933 33.7183C125.374 33.4498 125.716 33.0463 125.909 32.5677L127.973 32.5677ZM120.624 29.4064H125.919C125.939 29.0558 125.885 28.7051 125.763 28.3761C125.641 28.0471 125.451 27.747 125.207 27.4945C124.963 27.2421 124.67 27.0428 124.345 26.9092C124.021 26.7756 123.672 26.7105 123.321 26.718C122.967 26.7159 122.616 26.7839 122.288 26.9182C121.961 27.0524 121.663 27.2502 121.412 27.5001C121.161 27.7501 120.963 28.0472 120.827 28.3744C120.692 28.7016 120.623 29.0523 120.624 29.4064V29.4064Z" fill="#333333"/>
</svg>
